<svg width="32" height="40" viewBox="0 0 32 40" fill="none" xmlns="http://www.w3.org/2000/svg">
<g clip-path="url(#clip0)">
<path d="M21.1483 15.2906L12.2583 6.40061C12.067 6.23679 11.8209 6.15118 11.5692 6.1609C11.3176 6.17062 11.0788 6.27496 10.9007 6.45305C10.7226 6.63114 10.6183 6.86988 10.6086 7.12156C10.5989 7.37324 10.6845 7.61931 10.8483 7.81061L18.9983 16.0006L10.8183 24.1806C10.7136 24.2703 10.6286 24.3806 10.5686 24.5046C10.5085 24.6287 10.4748 24.7638 10.4695 24.9016C10.4642 25.0393 10.4874 25.1766 10.5377 25.3049C10.5879 25.4333 10.6642 25.5498 10.7616 25.6473C10.8591 25.7447 10.9756 25.821 11.104 25.8713C11.2323 25.9215 11.3696 25.9447 11.5073 25.9394C11.6451 25.9341 11.7802 25.9004 11.9043 25.8403C12.0283 25.7803 12.1386 25.6953 12.2283 25.5906L21.1183 16.7006C21.3086 16.5172 21.4186 16.266 21.4242 16.0018C21.4298 15.7376 21.3306 15.4819 21.1483 15.2906Z" fill="black"/>
</g>
<defs>
<clipPath id="clip0">
<rect width="32" height="40" fill="white"/>
</clipPath>
</defs>
</svg>
